<svg id="visual" viewBox="0 0 1920 1080" width="1920" height="1080" xmlns="http://www.w3.org/2000/svg" xmlns:xlink="http://www.w3.org/1999/xlink" version="1.1"><rect x="0" y="0" width="1920" height="1080" fill="#232323"></rect><path d="M0 231L80 222.2C160 213.3 320 195.7 480 181.2C640 166.7 800 155.3 960 163.5C1120 171.7 1280 199.3 1440 200.5C1600 201.7 1760 176.3 1840 163.7L1920 151L1920 0L1840 0C1760 0 1600 0 1440 0C1280 0 1120 0 960 0C800 0 640 0 480 0C320 0 160 0 80 0L0 0Z" fill="#444242" stroke-linecap="round" stroke-linejoin="miter"></path></svg>