<svg id="visual" viewBox="0 0 1920 580" width="1920" height="580" xmlns="http://www.w3.org/2000/svg" xmlns:xlink="http://www.w3.org/1999/xlink" version="1.1"><rect x="0" y="0" width="1920" height="580" fill="#4f4f4f"></rect><path d="M0 111L16 107.7C32 104.3 64 97.7 96 94.3C128 91 160 91 192 91C224 91 256 91 288 91.3C320 91.7 352 92.3 384 92.2C416 92 448 91 480 87.5C512 84 544 78 576 77.3C608 76.7 640 81.3 672 88.3C704 95.3 736 104.7 768 112.8C800 121 832 128 864 130.8C896 133.7 928 132.3 960 134.5C992 136.7 1024 142.3 1056 134.2C1088 126 1120 104 1152 101.8C1184 99.7 1216 117.3 1248 125.2C1280 133 1312 131 1344 134C1376 137 1408 145 1440 142.3C1472 139.7 1504 126.3 1536 113.2C1568 100 1600 87 1632 85.7C1664 84.3 1696 94.7 1728 107.5C1760 120.3 1792 135.7 1824 143.7C1856 151.7 1888 152.3 1904 152.7L1920 153L1920 0L1904 0C1888 0 1856 0 1824 0C1792 0 1760 0 1728 0C1696 0 1664 0 1632 0C1600 0 1568 0 1536 0C1504 0 1472 0 1440 0C1408 0 1376 0 1344 0C1312 0 1280 0 1248 0C1216 0 1184 0 1152 0C1120 0 1088 0 1056 0C1024 0 992 0 960 0C928 0 896 0 864 0C832 0 800 0 768 0C736 0 704 0 672 0C640 0 608 0 576 0C544 0 512 0 480 0C448 0 416 0 384 0C352 0 320 0 288 0C256 0 224 0 192 0C160 0 128 0 96 0C64 0 32 0 16 0L0 0Z" fill="#333232" stroke-linecap="round" stroke-linejoin="miter"></path></svg>