<svg id="visual" viewBox="0 0 1920 1080" width="1920" height="1080" xmlns="http://www.w3.org/2000/svg" xmlns:xlink="http://www.w3.org/1999/xlink" version="1.1"><rect width="1920" height="1080" fill="#2f2d2d"></rect><g><g transform="translate(1903 119)"><path d="M0 -100.7L71.2 -71.2L100.7 0L71.2 71.2L0 100.7L-71.2 71.2L-100.7 0L-71.2 -71.2Z" fill="#b59507"></path></g><g transform="translate(773 278)"></g><g transform="translate(649 523)"><path d="M0 -32L22.6 -22.6L32 0L22.6 22.6L0 32L-22.6 22.6L-32 0L-22.6 -22.6Z" fill="#b59507"></path></g><g transform="translate(519 995)"><path d="M0 -70L49.5 -49.5L70 0L49.5 49.5L0 70L-49.5 49.5L-70 0L-49.5 -49.5Z" fill="#b59507"></path></g><g transform="translate(950 1077)"><path d="M0 -94L66.5 -66.5L94 0L66.5 66.5L0 94L-66.5 66.5L-94 0L-66.5 -66.5Z" fill="#b59507"></path></g><g transform="translate(386 509)"><path d="M0 -36L25.5 -25.5L36 0L25.5 25.5L0 36L-25.5 25.5L-36 0L-25.5 -25.5Z" fill="#b59507"></path></g><g transform="translate(1478 261)"><path d="M0 -27L19.1 -19.1L27 0L19.1 19.1L0 27L-19.1 19.1L-27 0L-19.1 -19.1Z" fill="#b59507"></path></g><g transform="translate(358 169)"><path d="M0 -34L24 -24L34 0L24 24L0 34L-24 24L-34 0L-24 -24Z" fill="#b59507"></path></g><g transform="translate(1109 728)"><path d="M0 -77L54.4 -54.4L77 0L54.4 54.4L0 77L-54.4 54.4L-77 0L-54.4 -54.4Z" fill="#b59507"></path></g><g transform="translate(1422 891)"><path d="M0 -50L35.4 -35.4L50 0L35.4 35.4L0 50L-35.4 35.4L-50 0L-35.4 -35.4Z" fill="#b59507"></path></g><g transform="translate(808 794)"><path d="M0 -33L23.3 -23.3L33 0L23.3 23.3L0 33L-23.3 23.3L-33 0L-23.3 -23.3Z" fill="#b59507"></path></g><g transform="translate(59 1041)"><path d="M0 -71L50.2 -50.2L71 0L50.2 50.2L0 71L-50.2 50.2L-71 0L-50.2 -50.2Z" fill="#b59507"></path></g><g transform="translate(1465 565)"><path d="M0 -86L60.8 -60.8L86 0L60.8 60.8L0 86L-60.8 60.8L-86 0L-60.8 -60.8Z" fill="#b59507"></path></g><g transform="translate(153 843)"><path d="M0 -94L66.5 -66.5L94 0L66.5 66.5L0 94L-66.5 66.5L-94 0L-66.5 -66.5Z" fill="#b59507"></path></g></g></svg>