<svg id="visual" viewBox="0 0 1920 690" width="1920" height="690" xmlns="http://www.w3.org/2000/svg" xmlns:xlink="http://www.w3.org/1999/xlink" version="1.1"><rect x="0" y="0" width="1920" height="690" fill="#232323"></rect><path d="M530 0L483.5 28.8C437 57.7 344 115.3 338.7 172.8C333.3 230.3 415.7 287.7 437.5 345.2C459.3 402.7 420.7 460.3 421.3 517.8C422 575.3 462 632.7 482 661.3L502 690L0 690L0 661.3C0 632.7 0 575.3 0 517.8C0 460.3 0 402.7 0 345.2C0 287.7 0 230.3 0 172.8C0 115.3 0 57.7 0 28.8L0 0Z" fill="#faaf3c" stroke-linecap="round" stroke-linejoin="miter"></path></svg>